<?xml version="1.0" encoding="utf-8"?>
<!-- Generator: Adobe Illustrator 24.3.0, SVG Export Plug-In . SVG Version: 6.00 Build 0)  -->
<svg version="1.1" id="Layer_1" xmlns="http://www.w3.org/2000/svg" xmlns:xlink="http://www.w3.org/1999/xlink" x="0px" y="0px"
	 viewBox="0 0 520 520" style="enable-background:new 0 0 520 520;" xml:space="preserve">
<style type="text/css">
	.st0{fill:#00B2CA;}
</style>
<g>
	<g>
		<path class="st0" d="M206.8,196.9c0-6.7,1.3-13.2,3.9-19.2c2.5-5.9,6.1-11.2,10.6-15.7c4.5-4.5,9.8-8.1,15.7-10.6
			c6.1-2.6,12.5-3.9,19.2-3.9h19.6l45.6-45.6h-65.2c-12.8,0-25.3,2.5-37,7.5c-11.3,4.8-21.5,11.6-30.2,20.4
			c-8.7,8.7-15.6,18.9-20.4,30.2c-5,11.7-7.5,24.2-7.5,37V262l45.6-45.6V196.9z"/>
	</g>
	<path class="st0" d="M516.1,4c0,0,0,24.3,0,24.3c0,3.5-0.9,7.1-2.9,10c-2.8,4-5.2,6.5-8,9.3c-6.3,6.3-12.6,12.1-18.8,18.4
		c-5.9,5.9-11.7,11.7-17.6,17.6c-5.5,5.5-11,11-16.4,16.4c-3.3,3.3-6.6,6.6-9.9,9.9c0,0,0,0,0,0
		C282.2,270.1,246.7,305.5,246.7,305.6l0,0v0L81.9,470.4h187.9c19.1,0,37.7-3.7,55.2-11.1c8.4-3.5,16.5-7.9,24.1-13.1
		c7.5-5.1,14.6-10.9,21-17.3c6.4-6.4,12.2-13.5,17.3-21c5.1-7.6,9.5-15.7,13.1-24.1c7.4-17.5,11.1-36,11.1-55.2V205.3l45.6-45.6v169
		c0,12.7-1.3,25.4-3.8,37.7c-2.5,12-6.1,23.9-10.9,35.2c-4.7,11.1-10.5,21.8-17.3,31.8c-6.7,9.9-14.4,19.2-22.9,27.7
		c-8.5,8.5-17.8,16.2-27.7,22.9c-10,6.8-20.7,12.6-31.8,17.3c-11.3,4.8-23.2,8.5-35.2,10.9c-12.3,2.5-25,3.8-37.7,3.8H62.3v0H3.9
		c0,0,0-24.3,0-24.3c0-2.9,0.7-5.8,2-8.5c1.8-3.6,4.9-7.1,7.7-9.9c18.6-18.2,6.4-6.2,9.6-9.4c6.1-6.1,0,0.3,18.3-17.7
		c5.8-5.7,11.4-11.4,17.1-17.1c5.3-5.3,10.6-10.6,16-16c4.9-4.9,9.9-9.9,14.8-14.8c4.6-4.6,9.2-9.2,13.7-13.7
		c4.2-4.2,8.5-8.5,12.7-12.7c3.9-3.9,7.8-7.8,11.7-11.7c3.6-3.6,7.2-7.2,10.7-10.7c3.3-3.3,6.5-6.5,9.8-9.8c3-3,5.9-5.9,8.9-8.9
		c2.7-2.7,5.4-5.4,8.1-8.1c2.4-2.4,4.9-4.9,7.3-7.3c2.2-2.2,4.4-4.4,6.5-6.5c1.9-1.9,3.9-3.9,5.8-5.8c1.7-1.7,3.4-3.4,5.1-5.1
		c1.5-1.5,3-3,4.5-4.5c1.3-1.3,2.6-2.6,3.9-3.9c1.1-1.1,2.2-2.2,3.4-3.4c1-1,1.9-1.9,2.9-2.9c0.8-0.8,1.6-1.6,2.4-2.4
		c0.7-0.7,1.3-1.3,2-2c0.5-0.5,1.1-1.1,1.6-1.6c0.4-0.4,0.8-0.8,1.2-1.2c0.3-0.3,0.6-0.6,0.9-0.9c0.2-0.2,0.5-0.5,0.7-0.7
		c0.1-0.1,0.3-0.3,0.4-0.4l3.8-3.8L438.1,49.6l0,0l0,0H250.2c-19.1,0-37.7,3.7-55.2,11.1c-8.4,3.5-16.5,7.9-24.1,13.1
		c-7.5,5.1-14.6,10.9-21,17.3c-6.4,6.4-12.2,13.5-17.3,21c-5.1,7.6-9.5,15.7-13.1,24.1c-7.4,17.5-11.1,36-11.1,55.2v123.4
		l-45.6,45.6v-169c0-12.7,1.3-25.4,3.8-37.7c2.5-12,6.1-23.9,10.9-35.2c4.7-11.1,10.5-21.8,17.3-31.8c6.7-9.9,14.4-19.2,22.9-27.7
		c8.5-8.5,17.8-16.2,27.7-22.9c10-6.8,20.7-12.6,31.8-17.3c11.3-4.8,23.2-8.5,35.2-10.9c12.3-2.5,25-3.8,37.7-3.8h207.5v0H516.1z"/>
	<path class="st0" d="M313.2,323.1c0,6.7-1.3,13.2-3.9,19.2c-2.5,5.9-6.1,11.2-10.6,15.7c-4.5,4.5-9.8,8.1-15.7,10.6
		c-6.1,2.6-12.5,3.9-19.2,3.9h-19.6l-45.6,45.6h65.2c12.8,0,25.3-2.5,37-7.5c11.3-4.8,21.5-11.6,30.2-20.4
		c8.7-8.7,15.6-18.9,20.4-30.2c5-11.7,7.5-24.2,7.5-37V258l-45.6,45.6V323.1z"/>
</g>
</svg>
